<svg width="50" height="50" viewBox="0 0 50 50" fill="none" xmlns="http://www.w3.org/2000/svg">
<rect width="50" height="50" rx="14.7059" fill="#F37335"/>
<path d="M19.6328 37.1328C19.2786 37.1328 18.9818 37.013 18.7422 36.7734C18.5026 36.5338 18.3828 36.237 18.3828 35.8828V15.8828C18.3828 15.5286 18.5026 15.2318 18.7422 14.9922C18.9818 14.7526 19.2786 14.6328 19.6328 14.6328H22.1328V12.1328H27.1328V14.6328H29.6328C29.987 14.6328 30.2838 14.7526 30.5234 14.9922C30.763 15.2318 30.8828 15.5286 30.8828 15.8828V22.1328C28.487 22.1328 26.4349 22.9766 24.7266 24.6641C23.0182 26.3516 22.1641 28.4141 22.1641 30.8515C22.1641 32.039 22.388 33.1745 22.8359 34.2578C23.2839 35.3411 23.9349 36.2995 24.7891 37.1328H19.6328ZM29.6328 37.1328L29.2578 35.2578C29.0078 35.1536 28.7734 35.039 28.5547 34.914C28.3359 34.789 28.1224 34.6432 27.9141 34.4765L26.1016 35.1015L24.8516 32.9453L26.2578 31.6953C26.2161 31.3828 26.1953 31.1172 26.1953 30.8984C26.1953 30.6797 26.2161 30.414 26.2578 30.1015L24.8516 28.8516L26.1016 26.6953L27.9141 27.3203C28.1224 27.1536 28.3359 27.0026 28.5547 26.8672C28.7734 26.7318 29.0078 26.612 29.2578 26.5078L29.6328 24.6328H32.1328L32.5078 26.5078C32.7578 26.612 32.9922 26.7266 33.2109 26.8516C33.4297 26.9766 33.6432 27.1224 33.8516 27.2891L35.6641 26.6641L36.914 28.8203L35.5078 30.0703C35.5495 30.3828 35.5703 30.6484 35.5703 30.8672C35.5703 31.0859 35.5495 31.3515 35.5078 31.664L36.914 32.914L35.6641 35.0703L33.8516 34.4765C33.6432 34.6432 33.4297 34.789 33.2109 34.914C32.9922 35.039 32.7578 35.1536 32.5078 35.2578L32.1328 37.1328H29.6328ZM30.8828 33.3828C31.5703 33.3828 32.1588 33.138 32.6484 32.6484C33.138 32.1588 33.3828 31.5703 33.3828 30.8828C33.3828 30.1953 33.138 29.6068 32.6484 29.1172C32.1588 28.6276 31.5703 28.3828 30.8828 28.3828C30.1953 28.3828 29.6068 28.6276 29.1172 29.1172C28.6276 29.6068 28.3828 30.1953 28.3828 30.8828C28.3828 31.5703 28.6276 32.1588 29.1172 32.6484C29.6068 33.138 30.1953 33.3828 30.8828 33.3828Z" fill="white"/>
</svg>
