<svg width="50" height="50" viewBox="0 0 50 50" fill="none" xmlns="http://www.w3.org/2000/svg">
<rect width="50" height="50" rx="14.7059" fill="#F37335"/>
<path d="M35.4145 13.9598C34.8229 13.3498 34.1146 12.8649 33.3319 12.5339C32.5492 12.203 31.708 12.0327 30.8582 12.0332H30.8066C29.0222 12.0314 27.309 12.7338 26.0395 13.9879L20.2645 19.777C19.2229 20.8278 18.5697 22.2015 18.4121 23.6727C18.2545 25.1437 18.6019 26.6247 19.3973 27.8723C19.5265 28.0748 19.6999 28.2454 19.9045 28.3712C20.1091 28.4971 20.3396 28.5749 20.5785 28.5988C20.6378 28.6035 20.6974 28.6035 20.7566 28.5988C21.1879 28.6011 21.6025 28.4326 21.9098 28.1301C22.1712 27.8709 22.3361 27.5301 22.377 27.1643C22.4179 26.7985 22.3324 26.4297 22.1348 26.1192C21.7365 25.497 21.5622 24.7576 21.6406 24.0231C21.719 23.2885 22.0454 22.6026 22.566 22.0785L28.4629 16.1957C28.7819 15.8788 29.1634 15.6318 29.583 15.4704C30.0026 15.309 30.4513 15.2367 30.9004 15.2582C31.3516 15.2775 31.7936 15.3918 32.1975 15.5938C32.6014 15.7957 32.9581 16.0807 33.2441 16.4301C33.7476 17.0737 33.9963 17.8803 33.9427 18.6957C33.8891 19.5111 33.5369 20.2782 32.9535 20.8504L31.8004 22.0035C31.6486 22.1543 31.5281 22.3336 31.4459 22.5311C31.3638 22.7285 31.3214 22.9404 31.3214 23.1543C31.3214 23.3682 31.3638 23.58 31.4459 23.7776C31.5281 23.975 31.6486 24.1543 31.8004 24.3051C32.1061 24.6094 32.5199 24.7802 32.9512 24.7802C33.3825 24.7802 33.7963 24.6094 34.102 24.3051L35.3348 23.0723C36.5365 21.8652 37.2178 20.2355 37.2327 18.5322C37.2476 16.829 36.5949 15.1877 35.4145 13.9598Z" fill="white"/>
<path d="M28.6346 20.6118C28.3305 20.5775 28.0229 20.6297 27.7472 20.7623C27.4714 20.8949 27.2387 21.1026 27.0756 21.3616C26.9126 21.6206 26.826 21.9203 26.8256 22.2263C26.8253 22.5323 26.9112 22.8322 27.0737 23.0915C27.4729 23.7139 27.6482 24.4537 27.5706 25.1891C27.4931 25.9244 27.1674 26.6114 26.6471 27.1368L20.7502 33.0337C20.4308 33.3499 20.0492 33.5964 19.6297 33.7578C19.2101 33.9192 18.7617 33.9918 18.3127 33.9712C17.8614 33.9505 17.4195 33.835 17.0156 33.6323C16.6119 33.4296 16.2552 33.1442 15.969 32.7946C15.4652 32.1529 15.2162 31.3476 15.2698 30.5336C15.3235 29.7194 15.676 28.9538 16.2596 28.3837L17.4127 27.2306C17.7148 26.923 17.8833 26.5086 17.8815 26.0774C17.8828 25.8646 17.842 25.6536 17.7616 25.4565C17.6812 25.2594 17.5626 25.0802 17.4127 24.929C17.1035 24.6314 16.6911 24.4652 16.2619 24.4652C15.8328 24.4652 15.4203 24.6314 15.1112 24.929L13.9862 26.0399C13.3593 26.6741 12.864 27.4259 12.5285 28.252C12.1931 29.0781 12.0242 29.9624 12.0315 30.854C12.0303 31.7046 12.2003 32.5467 12.5313 33.3303C12.8623 34.1138 13.3475 34.8228 13.958 35.4149C15.185 36.5893 16.8218 37.2385 18.5201 37.2245C20.2185 37.2105 21.8443 36.5344 23.0518 35.3399L28.9487 29.4384C29.9864 28.3874 30.6372 27.0156 30.7947 25.5469C30.9522 24.0783 30.6071 22.5996 29.8158 21.3524C29.6877 21.1478 29.5148 20.9749 29.3102 20.8466C29.1056 20.7183 28.8746 20.6381 28.6346 20.6118Z" fill="white"/>
</svg>
