<svg width="61" height="60" viewBox="0 0 61 60" fill="none" xmlns="http://www.w3.org/2000/svg">
<path d="M55.2032 32.1018V22.2338C55.2032 9.89884 50.2692 4.96484 37.9342 4.96484H23.1323C10.7973 4.96484 5.86328 9.89884 5.86328 22.2338V37.0358C5.86328 49.3708 10.7973 54.3048 23.1323 54.3048H33.0002" stroke="#F37335" stroke-width="3.70049" stroke-linecap="round" stroke-linejoin="round"/>
<path d="M55.2032 32.1018V22.2338C55.2032 9.89884 50.2692 4.96484 37.9342 4.96484H23.1323C10.7973 4.96484 5.86328 9.89884 5.86328 22.2338V37.0358C5.86328 49.3708 10.7973 54.3048 23.1323 54.3048H33.0002" stroke="#F37335" stroke-width="3.70049" stroke-linecap="round" stroke-linejoin="round"/>
<path d="M55.2032 32.1018V22.2338C55.2032 9.89884 50.2692 4.96484 37.9342 4.96484H23.1323C10.7973 4.96484 5.86328 9.89884 5.86328 22.2338V37.0358C5.86328 49.3708 10.7973 54.3048 23.1323 54.3048H33.0002" stroke="#F37335" stroke-width="3.70049" stroke-linecap="round" stroke-linejoin="round"/>
<path d="M40.3945 47.9655L44.2924 51.8387L52.7295 41.9707" stroke="#F37335" stroke-width="3.70049" stroke-linecap="round" stroke-linejoin="round"/>
<path d="M18.1914 25.9355V33.3365" stroke="#F37335" stroke-width="3.70049" stroke-linecap="round" stroke-linejoin="round"/>
<path d="M30.5312 25.9355V33.3365" stroke="#F37335" stroke-width="3.70049" stroke-linecap="round" stroke-linejoin="round"/>
<path d="M42.8672 25.9355V33.3365" stroke="#F37335" stroke-width="3.70049" stroke-linecap="round" stroke-linejoin="round"/>
</svg>
