<svg width="50" height="51" viewBox="0 0 50 51" fill="none" xmlns="http://www.w3.org/2000/svg">
<path d="M24.9961 45.7344C36.1065 45.7344 45.1133 36.7276 45.1133 25.6172C45.1133 14.5068 36.1065 5.5 24.9961 5.5C13.8857 5.5 4.87891 14.5068 4.87891 25.6172C4.87891 36.7276 13.8857 45.7344 24.9961 45.7344Z" stroke="#F37335" stroke-width="1.46484" stroke-miterlimit="10" stroke-linecap="round" stroke-linejoin="round"/>
<path d="M13.7969 37.6467V35.0213H29.5495V37.6467H13.7969ZM21.2137 31.28L13.7969 23.8632L16.5536 21.0408L24.0361 28.4577L21.2137 31.28ZM29.5495 22.9443L22.1326 15.4618L24.955 12.7051L32.3718 20.1219L29.5495 22.9443ZM35.588 36.334L18.457 19.203L20.2948 17.3652L37.4258 34.4962L35.588 36.334Z" fill="#F37335"/>
</svg>
