<svg width="30" height="30" viewBox="0 0 30 30" fill="none" xmlns="http://www.w3.org/2000/svg">
<g clip-path="url(#clip0_2295_6239)">
<path fill-rule="evenodd" clip-rule="evenodd" d="M23.0649 16.53L12.7584 6.22341C12.6993 6.16266 12.6123 6.13106 12.5224 6.14643L7.24322 7.04983C7.12851 7.06285 7.03134 7.15004 7.0109 7.26955L6.10808 12.5497C6.08871 12.6358 6.11252 12.7297 6.17955 12.7967L16.4879 23.105C16.5919 23.209 16.7614 23.21 16.8654 23.106L23.064 16.9075C23.1679 16.8035 23.1689 16.6339 23.0649 16.53ZM9.06398 8.01136C9.36459 8.01136 9.66523 8.12606 9.89464 8.35546C10.124 8.58484 10.2387 8.8855 10.2387 9.1861C10.2387 9.48672 10.124 9.78736 9.89462 10.0168C9.66524 10.2462 9.36458 10.3609 9.06398 10.3609C8.76337 10.3609 8.46273 10.2462 8.23333 10.0168C8.00393 9.78736 7.88923 9.48672 7.88923 9.1861C7.88923 8.8855 8.00393 8.58484 8.23334 8.35544C8.46273 8.12606 8.76337 8.01136 9.06398 8.01136ZM11.7344 11.7916C11.8384 11.6877 12.007 11.6877 12.1109 11.7916L19.1113 18.792C19.2153 18.896 19.2153 19.0646 19.1113 19.1686C19.0073 19.2725 18.8388 19.2725 18.7348 19.1686L11.7344 12.1682C11.6305 12.0642 11.6305 11.8956 11.7344 11.7916ZM13.4845 10.0415C13.5885 9.93756 13.7571 9.93756 13.861 10.0415L20.8614 17.0419C20.9654 17.1459 20.9654 17.3145 20.8614 17.4185C20.7575 17.5224 20.5889 17.5224 20.4849 17.4185L13.4845 10.4181C13.3805 10.3141 13.3805 10.1455 13.4845 10.0415ZM9.82992 13.4903C9.93388 13.3863 10.1025 13.3863 10.2064 13.4903L17.2068 20.4906C17.3108 20.5946 17.3108 20.7632 17.2068 20.8672C17.1029 20.9711 16.9343 20.9711 16.8303 20.8672L9.82992 13.8668C9.72595 13.7628 9.72595 13.5942 9.82992 13.4903Z" fill="black"/>
<path fill-rule="evenodd" clip-rule="evenodd" d="M9.70628 9.18517C9.70628 9.0208 9.64357 8.85642 9.51819 8.73104C9.39281 8.60566 9.22845 8.54297 9.06407 8.54297C8.89971 8.54297 8.73533 8.60567 8.60996 8.73105C8.48458 8.85643 8.42188 9.0208 8.42188 9.18517C8.42188 9.34954 8.48458 9.51392 8.60997 9.63931C8.73534 9.76468 8.89971 9.82738 9.06407 9.82738C9.22844 9.82738 9.39283 9.76468 9.5182 9.6393C9.64358 9.51392 9.70628 9.34954 9.70628 9.18517Z" fill="black"/>
<path fill-rule="evenodd" clip-rule="evenodd" d="M14.6262 0.242188C22.5918 0.242188 29.0493 6.69963 29.0493 14.6653C29.0493 22.6309 22.5918 29.0883 14.6262 29.0883C6.66056 29.0883 0.203125 22.6309 0.203125 14.6653C0.203125 6.69963 6.66056 0.242188 14.6262 0.242188ZM14.6262 1.83981C21.7095 1.83981 27.4516 7.58197 27.4516 14.6652C27.4516 21.7486 21.7095 27.4907 14.6262 27.4907C7.54289 27.4907 1.80076 21.7485 1.80076 14.6652C1.80076 7.58194 7.54292 1.83981 14.6262 1.83981Z" fill="black"/>
</g>
<defs>
<clipPath id="clip0_2295_6239">
<rect width="28.8462" height="28.8462" fill="white" transform="translate(0.203125 0.242188)"/>
</clipPath>
</defs>
</svg>
