<svg width="30" height="30" viewBox="0 0 30 30" fill="none" xmlns="http://www.w3.org/2000/svg">
<path d="M12.0986 20.4645L7.66108 20.4567L9.56973 17.1514L10.5914 17.7421C10.6984 17.8038 10.8218 17.8311 10.9448 17.8202C11.0678 17.8093 11.1845 17.7607 11.279 17.6811C11.3734 17.6015 11.441 17.4947 11.4726 17.3753C11.5042 17.2559 11.4983 17.1297 11.4555 17.0138L9.85639 12.661C9.80784 12.5291 9.71456 12.4183 9.59279 12.348C9.47101 12.2778 9.32846 12.2524 9.18992 12.2764L4.62262 13.066C4.50098 13.0871 4.38878 13.1451 4.30127 13.2322C4.21376 13.3193 4.15519 13.4312 4.13352 13.5527C4.11186 13.6742 4.12814 13.7995 4.18017 13.9115C4.23219 14.0234 4.31743 14.1166 4.4243 14.1784L5.44593 14.7686L3.01805 18.9753C2.65333 19.6075 2.4612 20.3245 2.46094 21.0543C2.46067 21.7842 2.65227 22.5013 3.01653 23.1338C3.38079 23.7662 3.90491 24.2918 4.53635 24.6578C5.16778 25.0239 5.88435 25.2175 6.6142 25.2193L12.0944 25.2289C12.4131 25.2289 12.7189 25.1023 12.9443 24.8769C13.1697 24.6515 13.2963 24.3458 13.2963 24.027V21.6664C13.2963 21.3484 13.1702 21.0433 12.9457 20.818C12.7213 20.5927 12.4166 20.4656 12.0986 20.4645Z" fill="black"/>
<path d="M27.1271 18.9951L24.3843 14.2631C24.2247 13.9877 23.9622 13.7869 23.6546 13.7048C23.347 13.6226 23.0194 13.6659 22.7437 13.825L20.7004 15.0053C20.5636 15.0843 20.4436 15.1895 20.3474 15.3149C20.2513 15.4402 20.1808 15.5834 20.1399 15.736C20.0991 15.8887 20.0888 16.0479 20.1096 16.2045C20.1304 16.3612 20.1819 16.5122 20.2611 16.6489L22.4847 20.4801L18.644 20.4735V19.3016C18.644 19.178 18.606 19.0574 18.5351 18.9561C18.4641 18.8549 18.3637 18.7781 18.2474 18.736C18.1312 18.694 18.0048 18.6888 17.8856 18.7212C17.7663 18.7535 17.6599 18.8219 17.5809 18.917L14.6121 22.4795C14.522 22.5875 14.4727 22.7237 14.4727 22.8644C14.4727 23.0051 14.522 23.1413 14.6121 23.2493L17.5809 26.8118C17.6599 26.9068 17.7663 26.9752 17.8856 27.0076C18.0048 27.04 18.1312 27.0348 18.2474 26.9927C18.3637 26.9507 18.4641 26.8738 18.5351 26.7726C18.606 26.6714 18.644 26.5508 18.644 26.4272V25.2391L23.5178 25.2475H23.5262C24.258 25.2522 24.9778 25.0618 25.6115 24.6959C26.2453 24.33 26.7701 23.8019 27.1319 23.1658C27.502 22.5331 27.6968 21.8133 27.6963 21.0803C27.6958 20.3474 27.4999 19.6278 27.1289 18.9957L27.1271 18.9951Z" fill="black"/>
<path d="M9.15632 10.743L11.1996 11.9227C11.3365 12.0017 11.4877 12.0529 11.6444 12.0734C11.8011 12.0938 11.9604 12.0832 12.113 12.0421C12.2656 12.0009 12.4086 11.9301 12.5338 11.8336C12.659 11.7371 12.764 11.6169 12.8426 11.4798L15.0482 7.66009L16.9712 10.984L15.967 11.5633C15.8602 11.6251 15.7749 11.7183 15.7229 11.8303C15.6709 11.9422 15.6546 12.0675 15.6762 12.189C15.6979 12.3106 15.7565 12.4225 15.844 12.5096C15.9315 12.5966 16.0437 12.6546 16.1653 12.6757L20.7326 13.4654C20.7666 13.4714 20.801 13.4744 20.8354 13.4744C20.9584 13.4743 21.0783 13.4365 21.1791 13.3661C21.2799 13.2958 21.3567 13.1962 21.3991 13.0808L23.0049 8.7316C23.0474 8.61574 23.0532 8.48959 23.0215 8.37031C22.9899 8.25102 22.9222 8.14438 22.8278 8.06488C22.7334 7.98538 22.6168 7.93687 22.4939 7.92595C22.371 7.91503 22.2476 7.94222 22.1407 8.00384L21.1004 8.6048L18.6491 4.37523C18.2861 3.7406 17.7608 3.21389 17.1272 2.84905C16.4937 2.4842 15.7745 2.29434 15.0433 2.29891C14.3123 2.29546 13.5935 2.48642 12.9605 2.85221C12.3275 3.21801 11.8032 3.7455 11.4412 4.38064L8.71582 9.10059C8.63683 9.23734 8.58557 9.38832 8.56497 9.54489C8.54436 9.70146 8.55481 9.86056 8.59572 10.0131C8.63663 10.1656 8.70719 10.3086 8.80338 10.4338C8.89958 10.5591 9.01951 10.6641 9.15632 10.743Z" fill="black"/>
</svg>
