<svg width="30" height="30" viewBox="0 0 30 30" fill="none" xmlns="http://www.w3.org/2000/svg">
<path d="M25.9765 18.752C26.0541 18.4846 26.2154 18.249 26.4367 18.0799C26.6579 17.9107 26.9275 17.8169 27.206 17.8122H28.0841C28.4255 16.0936 28.4255 14.3246 28.084 12.606H27.206C26.9275 12.6013 26.6579 12.5075 26.4367 12.3383C26.2154 12.1692 26.0541 11.9337 25.9765 11.6662C25.775 11.0328 25.5196 10.4178 25.213 9.82805C25.0782 9.58374 25.0254 9.30267 25.0622 9.02611C25.099 8.74954 25.2235 8.49207 25.4175 8.29151L26.0418 7.66709C25.0633 6.2143 23.8133 4.96429 22.3605 3.98578L21.7361 4.6102C21.5355 4.80415 21.2781 4.92867 21.0015 4.96547C20.7249 5.00228 20.4439 4.94943 20.1996 4.81468C19.6098 4.50804 18.9948 4.2526 18.3614 4.05116C18.0939 3.97351 17.8584 3.81224 17.6893 3.59098C17.5201 3.36972 17.4263 3.1001 17.4216 2.82165V1.94359C15.703 1.60214 13.934 1.60214 12.2154 1.94359V2.82165C12.2107 3.1001 12.1169 3.36971 11.9477 3.59097C11.7786 3.81223 11.5431 3.9735 11.2756 4.05114C10.6422 4.25259 10.0272 4.50803 9.43745 4.81467C9.19315 4.94941 8.91208 5.00226 8.63552 4.96546C8.35896 4.92866 8.1015 4.80414 7.90094 4.61019L7.27653 3.98578C5.82373 4.96429 4.5737 6.2143 3.59518 7.66709L4.21958 8.29151C4.41352 8.49207 4.53804 8.74954 4.57485 9.02611C4.61165 9.30267 4.5588 9.58374 4.42406 9.82805C4.11745 10.4178 3.862 11.0328 3.66053 11.6662C3.5829 11.9337 3.42163 12.1692 3.20036 12.3383C2.9791 12.5075 2.70948 12.6013 2.43102 12.606H1.55302C1.21151 14.3246 1.21149 16.0936 1.55297 17.8122H2.43102C2.70948 17.8169 2.9791 17.9107 3.20036 18.0799C3.42162 18.249 3.58288 18.4846 3.66052 18.752C3.86199 19.3854 4.11743 20.0004 4.42404 20.5901C4.55879 20.8344 4.61164 21.1155 4.57484 21.3921C4.53803 21.6687 4.41351 21.9261 4.21956 22.1267L3.59518 22.7511C4.57364 24.2039 5.82366 25.454 7.27647 26.4325L7.90094 25.808C8.1015 25.6141 8.35896 25.4896 8.63552 25.4528C8.91207 25.416 9.19314 25.4688 9.43745 25.6035C10.0272 25.9102 10.6422 26.1656 11.2756 26.3671C11.5431 26.4447 11.7786 26.606 11.9478 26.8273C12.1169 27.0485 12.2107 27.3182 12.2154 27.5966V28.4747C13.934 28.8161 15.703 28.8161 17.4216 28.4747V27.5966C17.4263 27.3182 17.5201 27.0485 17.6893 26.8273C17.8584 26.606 18.0939 26.4447 18.3614 26.3671C18.9948 26.1656 19.6098 25.9102 20.1996 25.6035C20.4439 25.4688 20.7249 25.416 21.0015 25.4528C21.2781 25.4896 21.5355 25.6141 21.7361 25.808L22.3606 26.4325C23.8134 25.454 25.0634 24.2039 26.0418 22.7511L25.4174 22.1267C25.2235 21.9261 25.099 21.6687 25.0622 21.3921C25.0254 21.1155 25.0782 20.8344 25.213 20.5901C25.5196 20.0004 25.775 19.3854 25.9765 18.752ZM16.396 24.5324V22.0556C17.0229 21.751 17.548 21.2712 17.9077 20.6742C18.2673 20.0771 18.446 19.3886 18.4222 18.6921C18.3983 17.9955 18.1729 17.3208 17.7733 16.7498C17.3736 16.1788 16.8169 15.736 16.1707 15.4751V19.2656H13.4663V15.4796C12.8202 15.74 12.2635 16.1824 11.8638 16.753C11.4642 17.3236 11.2387 17.998 11.2149 18.6943C11.191 19.3905 11.3697 20.0788 11.7294 20.6754C12.0891 21.2721 12.6142 21.7515 13.241 22.0556V24.5324C10.9009 24.1368 8.79478 22.8766 7.34003 21.0014C5.88528 19.1263 5.18805 16.773 5.38652 14.4081C5.58499 12.0431 6.66467 9.83897 8.4116 8.2325C10.1585 6.62603 12.4452 5.73445 14.8185 5.73445C17.1918 5.73445 19.4785 6.62603 21.2254 8.2325C22.9723 9.83897 24.052 12.0431 24.2505 14.4081C24.449 16.773 23.7517 19.1263 22.297 21.0014C20.8422 22.8766 18.7361 24.1368 16.396 24.5324Z" fill="black"/>
<path d="M17.0583 10.2551C17.0578 10.1227 17.0448 9.99054 17.0194 9.86052L17.5257 9.5778C17.3978 9.10048 17.1404 8.66784 16.7819 8.3277L16.4884 8.49163C16.4292 8.52572 16.3618 8.54291 16.2936 8.54131C16.2253 8.53971 16.1588 8.51938 16.1013 8.48255C15.9959 8.41152 15.8847 8.34953 15.7688 8.29725C15.708 8.26892 15.6567 8.22371 15.6209 8.167C15.5852 8.11029 15.5665 8.04448 15.5671 7.97744V7.65016C15.0789 7.51721 14.5639 7.51767 14.0759 7.65148V7.97744C14.0765 8.04448 14.0578 8.11029 14.0221 8.167C13.9863 8.22371 13.935 8.26892 13.8742 8.29725C13.7584 8.34953 13.6471 8.41152 13.5417 8.48255C13.4842 8.51938 13.4177 8.53971 13.3494 8.54131C13.2812 8.54291 13.2138 8.52572 13.1546 8.49163L12.8625 8.32849C12.5036 8.66822 12.2457 9.10057 12.1172 9.57774L12.6236 9.86052C12.5717 10.121 12.5717 10.3892 12.6236 10.6498L12.1173 10.9325C12.2452 11.4098 12.5026 11.8425 12.8611 12.1826L13.1547 12.0186C13.2138 11.9846 13.2812 11.9674 13.3495 11.969C13.4177 11.9706 13.4842 11.9909 13.5417 12.0277C13.6471 12.0988 13.7583 12.1608 13.8742 12.213C13.935 12.2413 13.9863 12.2866 14.0221 12.3433C14.0578 12.4 14.0765 12.4658 14.0759 12.5329V12.8601C14.5641 12.9931 15.0791 12.9926 15.5671 12.8588V12.5329C15.5665 12.4658 15.5852 12.4 15.6209 12.3433C15.6567 12.2866 15.708 12.2413 15.7688 12.213C15.8847 12.1608 15.9959 12.0988 16.1013 12.0277C16.1588 11.9909 16.2253 11.9706 16.2936 11.969C16.3618 11.9674 16.4292 11.9846 16.4884 12.0186L16.7805 12.1818C17.1394 11.8421 17.3973 11.4097 17.5258 10.9325L17.0194 10.6498C17.0448 10.5198 17.0578 10.3876 17.0583 10.2551ZM14.8215 11.1566C14.6432 11.1566 14.4689 11.1037 14.3207 11.0047C14.1725 10.9056 14.0569 10.7648 13.9887 10.6001C13.9205 10.4354 13.9026 10.2541 13.9374 10.0793C13.9722 9.90442 14.058 9.7438 14.1841 9.61773C14.3102 9.49166 14.4708 9.40581 14.6457 9.37102C14.8205 9.33624 15.0018 9.35409 15.1665 9.42232C15.3312 9.49055 15.472 9.60609 15.571 9.75433C15.6701 9.90257 15.723 10.0769 15.723 10.2551C15.723 10.4942 15.628 10.7235 15.4589 10.8926C15.2899 11.0616 15.0606 11.1566 14.8215 11.1566Z" fill="black"/>
</svg>
