<svg width="29" height="30" viewBox="0 0 29 30" fill="none" xmlns="http://www.w3.org/2000/svg">
<path d="M21.7557 14.0132C22.4787 13.2139 22.9234 12.1568 22.9234 10.994C22.9234 8.67488 21.1716 6.76743 18.9198 6.51683C18.9829 6.21635 19.0171 5.90505 19.0171 5.58534C19.0171 3.09615 16.9991 1.07812 14.5099 1.07812C12.0207 1.07812 10.0027 3.09615 10.0027 5.58534C10.0027 5.90445 10.037 6.21574 10.1001 6.51683C7.84826 6.76743 6.09645 8.67548 6.09645 10.994C6.09645 12.1568 6.54056 13.2133 7.26412 14.0132C5.87109 14.61 4.89453 15.9928 4.89453 17.6046C4.89453 19.762 6.64333 21.5108 8.80078 21.5108H12.3825L12.3981 21.0974L9.95643 18.3504C9.32362 17.6382 9.35547 16.5523 10.0297 15.878L10.0784 15.8293C10.4186 15.4886 10.8717 15.3011 11.3531 15.3011C11.7948 15.3011 12.2203 15.4627 12.5508 15.7566L12.6019 15.8017L12.6854 13.6292C12.7227 12.6569 13.5141 11.8954 14.4871 11.8954C15.5051 11.8954 16.2966 12.6569 16.3338 13.6292L16.3501 14.0577L16.4684 13.9525C16.7984 13.6593 17.2239 13.4976 17.6662 13.4976C18.1475 13.4976 18.6007 13.6851 18.9408 14.0258L18.9895 14.0745C19.6638 14.7488 19.6956 15.8347 19.0622 16.5469L16.5544 19.369L16.6367 21.5108H20.2184C22.3759 21.5108 24.1247 19.762 24.1247 17.6046C24.1247 15.9928 23.1487 14.61 21.7557 14.0132Z" fill="black"/>
<path d="M18.1419 14.9193L18.0933 14.8706C17.8685 14.6459 17.5067 14.6351 17.2693 14.8466L15.2495 16.6417L15.1353 13.6699C15.1227 13.3472 14.8577 13.0918 14.535 13.0918H14.4899C14.1672 13.0918 13.9016 13.3472 13.8895 13.6699L13.708 18.3845L11.7555 16.6489C11.5175 16.4373 11.1564 16.4482 10.9316 16.6729L10.8829 16.7216C10.6582 16.9464 10.6473 17.3081 10.8589 17.5455L13.6215 20.6537L13.3354 28.0918C13.3222 28.4325 13.5951 28.7156 13.9358 28.7156H15.0909C15.4316 28.7156 15.7044 28.4325 15.6912 28.0918L15.3385 18.9253L18.1672 15.742C18.3787 15.5041 18.3679 15.1429 18.1431 14.9181L18.1419 14.9193Z" fill="black"/>
</svg>
