<svg width="42" height="42" viewBox="0 0 42 42" fill="none" xmlns="http://www.w3.org/2000/svg">
<circle cx="21.1705" cy="20.8306" r="20.1478" stroke="white" stroke-width="1.35782"/>
<path d="M30.7383 16.87C30.6933 15.8483 30.5281 15.1459 30.2914 14.5373C30.0472 13.8912 29.6716 13.3128 29.1795 12.832C28.6986 12.3437 28.1164 11.9642 27.4778 11.7239C26.8657 11.4872 26.167 11.322 25.1453 11.277C24.116 11.2281 23.7892 11.2168 21.1786 11.2168C18.568 11.2168 18.2412 11.2281 17.2157 11.2731C16.194 11.3182 15.4916 11.4836 14.8831 11.7201C14.2369 11.9642 13.6585 12.3399 13.1777 12.832C12.6894 13.3128 12.3101 13.8951 12.0696 14.5336C11.8329 15.1459 11.6677 15.8445 11.6227 16.8662C11.5738 17.8955 11.5625 18.2223 11.5625 20.8329C11.5625 23.4435 11.5738 23.7703 11.6188 24.7958C11.6639 25.8174 11.8293 26.5198 12.0659 27.1285C12.3101 27.7745 12.6894 28.3529 13.1777 28.8338C13.6585 29.3221 14.2408 29.7015 14.8793 29.9419C15.4916 30.1785 16.1902 30.3438 17.212 30.3888C18.2374 30.434 18.5643 30.4451 21.1749 30.4451C23.7855 30.4451 24.1123 30.434 25.1378 30.3888C26.1595 30.3438 26.8619 30.1785 27.4704 29.9419C28.7626 29.4422 29.7843 28.4206 30.2839 27.1285C30.5204 26.5162 30.6858 25.8174 30.7308 24.7958C30.7759 23.7703 30.7872 23.4435 30.7872 20.8329C30.7872 18.2223 30.7834 17.8955 30.7383 16.87ZM29.0068 24.7206C28.9654 25.6597 28.8076 26.1668 28.6762 26.5049C28.3531 27.3425 27.6882 28.0074 26.8506 28.3305C26.5125 28.4619 26.0017 28.6197 25.0663 28.6609C24.0521 28.7061 23.748 28.7173 21.1824 28.7173C18.6168 28.7173 18.3088 28.7061 17.2983 28.6609C16.3592 28.6197 15.8521 28.4619 15.5141 28.3305C15.0972 28.1764 14.7178 27.9322 14.4098 27.613C14.0905 27.3012 13.8463 26.9255 13.6923 26.5087C13.5608 26.1706 13.4031 25.6597 13.3618 24.7244C13.3167 23.7102 13.3055 23.4059 13.3055 20.8404C13.3055 18.2748 13.3167 17.9668 13.3618 16.9564C13.4031 16.0174 13.5608 15.5103 13.6923 15.1722C13.8463 14.7552 14.0905 14.3759 14.4136 14.0678C14.7253 13.7485 15.1009 13.5043 15.5179 13.3504C15.856 13.2189 16.3669 13.0612 17.3021 13.0198C18.3163 12.9748 18.6206 12.9635 21.1861 12.9635C23.7554 12.9635 24.0596 12.9748 25.0701 13.0198C26.0092 13.0612 26.5163 13.2189 26.8544 13.3504C27.2712 13.5043 27.6507 13.7485 27.9587 14.0678C28.278 14.3796 28.5221 14.7552 28.6762 15.1722C28.8076 15.5103 28.9654 16.021 29.0068 16.9564C29.0518 17.9706 29.0631 18.2748 29.0631 20.8404C29.0631 23.4059 29.0518 23.7064 29.0068 24.7206Z" fill="white"/>
<path d="M21.1817 15.8926C18.4547 15.8926 16.2422 18.105 16.2422 20.8321C16.2422 23.5592 18.4547 25.7716 21.1817 25.7716C23.9088 25.7716 26.1212 23.5592 26.1212 20.8321C26.1212 18.105 23.9088 15.8926 21.1817 15.8926ZM21.1817 24.0362C19.4126 24.0362 17.9776 22.6014 17.9776 20.8321C17.9776 19.0628 19.4126 17.628 21.1817 17.628C22.951 17.628 24.3858 19.0628 24.3858 20.8321C24.3858 22.6014 22.951 24.0362 21.1817 24.0362Z" fill="white"/>
<path d="M27.4666 15.6961C27.4666 16.3329 26.9503 16.8493 26.3133 16.8493C25.6765 16.8493 25.1602 16.3329 25.1602 15.6961C25.1602 15.0592 25.6765 14.543 26.3133 14.543C26.9503 14.543 27.4666 15.0592 27.4666 15.6961Z" fill="white"/>
</svg>
