<svg width="43" height="42" viewBox="0 0 43 42" fill="none" xmlns="http://www.w3.org/2000/svg">
<circle cx="21.4986" cy="20.8306" r="20.1478" stroke="white" stroke-width="1.35782"/>
<path d="M30.3101 15.328C29.6548 15.6175 28.9565 15.8094 28.2284 15.9025C28.9774 15.4522 29.549 14.7446 29.8178 13.8917C29.1195 14.311 28.3485 14.6071 27.5268 14.7724C26.8638 14.0614 25.9188 13.6211 24.8879 13.6211C22.8877 13.6211 21.2774 15.2559 21.2774 17.2601C21.2774 17.5485 21.3017 17.8258 21.3611 18.0897C18.3576 17.9422 15.6999 16.4926 13.9145 14.2843C13.6028 14.8289 13.4199 15.4522 13.4199 16.1233C13.4199 17.3832 14.0643 18.5001 15.0247 19.1467C14.4443 19.1356 13.8748 18.9659 13.3924 18.6986C13.3924 18.7097 13.3924 18.7241 13.3924 18.7386C13.3924 20.5065 14.6447 21.975 16.2869 22.3132C15.9928 22.3942 15.6723 22.433 15.3397 22.433C15.1084 22.433 14.8749 22.4197 14.6557 22.3709C15.1238 23.8117 16.4521 24.8709 18.0316 24.9052C16.8024 25.8735 15.2417 26.4569 13.5521 26.4569C13.2558 26.4569 12.9717 26.4436 12.6875 26.407C14.2879 27.4462 16.1845 28.0396 18.2298 28.0396C24.8779 28.0396 28.5126 22.494 28.5126 17.6871C28.5126 17.5263 28.5071 17.371 28.4994 17.2168C29.2164 16.7044 29.8189 16.0645 30.3101 15.328Z" fill="white"/>
</svg>
